<svg width="91" height="36" viewBox="0 0 91 36" fill="none" xmlns="http://www.w3.org/2000/svg">
<g clip-path="url(#clip0_18_68)">
<rect width="90" height="35" transform="translate(0.5 0.5)" fill="#FEEFEC"/>
<path d="M10.4711 13.4102C10.6344 15.2084 11.3968 15.8827 12.4314 15.8827C13.2482 15.8827 13.7655 15.401 14.0106 14.3735C13.6022 11.6121 11.4513 9.55701 8.5652 9.55701C4.37226 9.55701 0.832764 12.8965 0.832764 18.7084C0.832764 24.424 3.96386 27.7634 8.07512 27.7634C10.9339 27.7634 12.8943 26.2543 14.0106 23.5891L13.4388 23.2359C12.4586 24.7772 11.1518 25.6442 9.51814 25.6442C6.57764 25.6442 4.59007 22.9469 4.59007 18.291C4.59007 13.5066 6.41428 10.7451 9.00083 10.7451C9.35478 10.7451 9.70873 10.7772 10.0627 10.9056L10.4711 13.4102ZM30.4295 25.9974C30.4022 24.1671 30.375 21.5341 30.375 19.7038V15.8506C30.375 11.3873 28.7958 9.55701 26.2093 9.55701C24.2217 9.55701 22.6153 10.6488 20.9817 12.8644V6.346L21.0906 1.2405L20.6822 0.951508L15.2913 2.33224V3.23133L17.4967 3.42399V19.7038C17.4967 21.4699 17.4695 24.135 17.4422 25.9653L15.4547 26.2543V27.2497H22.8604V26.2543L21.1179 25.9974C21.0634 24.1671 21.0362 21.4699 21.0362 19.7038V13.924C22.3703 12.479 23.541 11.8368 24.6301 11.8368C26.0459 11.8368 26.8355 12.8001 26.8355 15.5937V19.7038C26.8355 21.5341 26.8083 24.1671 26.7811 25.9653L24.8207 26.2543V27.2497H32.2809V26.2543L30.4295 25.9974ZM48.135 10.0708H42.4718V11.0662L45.0312 11.3873L41.4917 23.7176L37.6527 11.3552L39.8853 11.0662V10.0708H32.1528V11.0662L33.7592 11.2588L39.858 28.7267C39.0412 31.1029 38.2244 32.8047 37.0537 33.9286L36.6725 33.4148C35.9646 32.4515 35.2839 31.8414 34.2765 31.8414C33.3236 31.8414 32.3434 32.4194 32.1801 33.6396C32.2073 34.9882 33.5686 35.9515 35.0117 35.9515C36.8631 35.9515 39.0685 34.1854 40.7838 28.8231L46.3653 11.3552L48.135 11.0662V10.0708ZM63.019 25.9974L58.0092 15.2405L61.3854 11.4515L64.108 11.0983V10.0708H57.0835V11.0983L59.6973 11.5478L53.9796 18.1946V6.346L54.0886 1.2405L53.7074 0.951508L48.2348 2.33224V3.23133L50.4402 3.42399V19.7038C50.4402 21.502 50.4129 24.1029 50.3857 25.9653L48.3437 26.2543V27.2497H55.9944V26.2543L54.0613 25.9974C54.0069 24.1671 53.9796 21.5983 53.9796 19.7038L55.5316 17.9699L59.6973 27.2497H64.8704V26.2543L63.019 25.9974ZM72.511 25.9974C72.4293 22.6579 72.4293 19.2543 72.4293 15.4653H73.9268C77.5755 15.4653 79.2364 17.1671 79.2364 20.7313C79.2364 24.1671 77.4122 25.9974 74.199 25.9974H72.511ZM74.1173 4.67628C77.0582 4.67628 78.3379 6.28178 78.3379 9.23591C78.3379 12.479 76.8404 14.2451 73.7089 14.2451H72.4293C72.4293 10.9699 72.4293 7.79096 72.511 4.67628H74.1173ZM66.0582 3.42399V4.57995L68.6447 4.86894C68.6992 8.04784 68.6992 11.2588 68.6992 14.4699V15.8506C68.6992 19.2221 68.6992 22.5616 68.6447 25.8368L66.0582 26.1258V27.2497H74.4713C81.115 27.2497 83.1298 23.8781 83.1298 20.6992C83.1298 17.4882 81.2784 15.2726 76.7587 14.6304C80.6794 13.7313 82.0135 11.5157 82.0135 9.07536C82.0135 5.80013 79.9715 3.42399 75.152 3.42399H66.0582Z" fill="#403536"/>
<path d="M85.6884 24.545C85.6884 23.579 85.9153 22.907 86.3691 22.529C86.8229 22.13 87.3765 21.9305 88.0299 21.9305C88.6652 21.9305 89.2098 22.13 89.6635 22.529C90.1173 22.907 90.3442 23.579 90.3442 24.545C90.3442 25.469 90.1173 26.141 89.6635 26.561C89.2098 26.96 88.6652 27.1595 88.0299 27.1595C87.3765 27.1595 86.8229 26.96 86.3691 26.561C85.9153 26.141 85.6884 25.469 85.6884 24.545Z" fill="#F0805E"/>
</g>
<defs>
<clipPath id="clip0_18_68">
<rect width="90" height="35" fill="white" transform="translate(0.5 0.5)"/>
</clipPath>
</defs>
</svg>
